{
  "accessors": [
    {
      "name": "saucer39_remodel:_saucer_39_remodel group_1_positions",
      "componentType": 5126,
      "count": 8136,
      "min": [
        -1.8297430276870728,
        -1.929623007774353,
        -0.29858601093292236
      ],
      "max": [
        1.924307942390442,
        1.9023900032043457,
        0.39484700560569763
      ],
      "type": "VEC3",
      "bufferView": 0,
      "byteOffset": 0
    },
    {
      "name": "saucer39_remodel:_saucer_39_remodel group_1_normals",
      "componentType": 5126,
      "count": 8136,
      "min": [
        -0.9954699873924255,
        -0.9768400192260742,
        -0.9999960064888
      ],
      "max": [
        0.9977139830589294,
        0.9873430132865906,
        0.9999960064888
      ],
      "type": "VEC3",
      "bufferView": 0,
      "byteOffset": 97632
    },
    {
      "name": "saucer39_remodel:_saucer_39_remodel group_1_texcoords",
      "componentType": 5126,
      "count": 8136,
      "min": [
        0.002658999990671873,
        0.003911999985575676
      ],
      "max": [
        0.9990230202674866,
        0.9967010021209717
      ],
      "type": "VEC2",
      "bufferView": 1,
      "byteOffset": 0
    },
    {
      "name": "saucer39_remodel:_saucer_39_remodel group_1_0_indices",
      "componentType": 5123,
      "count": 12204,
      "min": [
        0
      ],
      "max": [
        8135
      ],
      "type": "SCALAR",
      "bufferView": 2,
      "byteOffset": 0
    }
  ],
  "asset": {
    "generator": "obj2gltf",
    "version": "2.0"
  },
  "buffers": [
    {
      "name": "saucer39_remodel",
      "byteLength": 2459444,
      "uri": "data:application/octet-stream;base64,"
    }
  ],
  "bufferViews": [
    {
      "name": "bufferView_0",
      "buffer": 0,
      "byteLength": 195264,
      "byteOffset": 0,
      "byteStride": 12,
      "target": 34962
    },
    {
      "name": "bufferView_1",
      "buffer": 0,
      "byteLength": 65088,
      "byteOffset": 195264,
      "byteStride": 8,
      "target": 34962
    },
    {
      "name": "bufferView_2",
      "buffer": 0,
      "byteLength": 24408,
      "byteOffset": 260352,
      "target": 34963
    },
    {
      "buffer": 0,
      "byteOffset": 284760,
      "byteLength": 2174682
    }
  ],
  "images": [
    {
      "name": "SaucerUVs",
      "mimeType": "image/png",
      "bufferView": 3
    }
  ],
  "materials": [
    {
      "name": "saucer39_remodel:lambert5SG",
      "pbrMetallicRoughness": {
        "baseColorTexture": {
          "index": 0
        },
        "baseColorFactor": [
          1,
          1,
          1,
          1
        ],
        "metallicFactor": 0,
        "roughnessFactor": 1
      },
      "emissiveFactor": [
        0,
        0,
        0
      ],
      "alphaMode": "OPAQUE",
      "doubleSided": false
    }
  ],
  "meshes": [
    {
      "name": "saucer39_remodel:_saucer_39_remodel group_1",
      "primitives": [
        {
          "attributes": {
            "POSITION": 0,
            "NORMAL": 1,
            "TEXCOORD_0": 2
          },
          "indices": 3,
          "material": 0,
          "mode": 4
        }
      ]
    }
  ],
  "nodes": [
    {
      "name": "saucer39_remodel:_saucer_39_remodel group",
      "mesh": 0
    }
  ],
  "samplers": [
    {
      "magFilter": 9729,
      "minFilter": 9986,
      "wrapS": 10497,
      "wrapT": 10497
    }
  ],
  "scene": 0,
  "scenes": [
    {
      "nodes": [
        0
      ]
    }
  ],
  "textures": [
    {
      "name": "SaucerUVs",
      "sampler": 0,
      "source": 0
    }
  ]
}
