{
  "accessors": [
    {
      "name": "_artdeco_39_FIXED:Mesh group2_1_positions",
      "componentType": 5126,
      "count": 8064,
      "min": [
        -1.9843790531158447,
        -1.9508320093154907,
        -0.2867070138454437
      ],
      "max": [
        1.9007370471954346,
        1.935811996459961,
        0.07387000322341919
      ],
      "type": "VEC3",
      "bufferView": 0,
      "byteOffset": 0
    },
    {
      "name": "_artdeco_39_FIXED:Mesh group2_1_normals",
      "componentType": 5126,
      "count": 8064,
      "min": [
        -0.3334769904613495,
        -0.31894299387931824,
        -0.9999949932098389
      ],
      "max": [
        0.3334839940071106,
        0.31893301010131836,
        0.9999949932098389
      ],
      "type": "VEC3",
      "bufferView": 0,
      "byteOffset": 96768
    },
    {
      "name": "_artdeco_39_FIXED:Mesh group2_1_texcoords",
      "componentType": 5126,
      "count": 8064,
      "min": [
        0.000007000000096013537,
        0.052574001252651215
      ],
      "max": [
        0.9998970031738281,
        0.9999769926071167
      ],
      "type": "VEC2",
      "bufferView": 1,
      "byteOffset": 0
    },
    {
      "name": "_artdeco_39_FIXED:Mesh group2_1_0_indices",
      "componentType": 5123,
      "count": 8064,
      "min": [
        0
      ],
      "max": [
        8063
      ],
      "type": "SCALAR",
      "bufferView": 2,
      "byteOffset": 0
    }
  ],
  "asset": {
    "generator": "obj2gltf",
    "version": "2.0"
  },
  "buffers": [
    {
      "name": "03_artdeco_39 FIXED",
      "byteLength": 1975380,
      "uri": "data:application/octet-stream;base64,"
    }
  ],
  "bufferViews": [
    {
      "name": "bufferView_0",
      "buffer": 0,
      "byteLength": 193536,
      "byteOffset": 0,
      "byteStride": 12,
      "target": 34962
    },
    {
      "name": "bufferView_1",
      "buffer": 0,
      "byteLength": 64512,
      "byteOffset": 193536,
      "byteStride": 8,
      "target": 34962
    },
    {
      "name": "bufferView_2",
      "buffer": 0,
      "byteLength": 16128,
      "byteOffset": 258048,
      "target": 34963
    },
    {
      "buffer": 0,
      "byteOffset": 274176,
      "byteLength": 1701201
    }
  ],
  "images": [
    {
      "name": "03_artdeco_39_FIXED",
      "mimeType": "image/jpeg",
      "bufferView": 3
    }
  ],
  "materials": [
    {
      "name": "initialShadingGroup",
      "pbrMetallicRoughness": {
        "baseColorTexture": {
          "index": 0
        },
        "baseColorFactor": [
          1,
          1,
          1,
          1
        ],
        "metallicFactor": 0,
        "roughnessFactor": 1
      },
      "emissiveFactor": [
        0,
        0,
        0
      ],
      "alphaMode": "OPAQUE",
      "doubleSided": false
    }
  ],
  "meshes": [
    {
      "name": "_artdeco_39_FIXED:Mesh group2_1",
      "primitives": [
        {
          "attributes": {
            "POSITION": 0,
            "NORMAL": 1,
            "TEXCOORD_0": 2
          },
          "indices": 3,
          "material": 0,
          "mode": 4
        }
      ]
    }
  ],
  "nodes": [
    {
      "name": "_artdeco_39_FIXED:Mesh group2",
      "mesh": 0
    }
  ],
  "samplers": [
    {
      "magFilter": 9729,
      "minFilter": 9986,
      "wrapS": 10497,
      "wrapT": 10497
    }
  ],
  "scene": 0,
  "scenes": [
    {
      "nodes": [
        0
      ]
    }
  ],
  "textures": [
    {
      "name": "03_artdeco_39_FIXED",
      "sampler": 0,
      "source": 0
    }
  ]
}
