{
  "accessors": [
    {
      "name": "_red_music_39:Mesh group3_1_positions",
      "componentType": 5126,
      "count": 5328,
      "min": [
        -2.1684789657592773,
        -1.9407349824905396,
        -0.23304499685764313
      ],
      "max": [
        2.0873959064483643,
        1.9218000173568726,
        0.053252000361680984
      ],
      "type": "VEC3",
      "bufferView": 0,
      "byteOffset": 0
    },
    {
      "name": "_red_music_39:Mesh group3_1_normals",
      "componentType": 5126,
      "count": 5328,
      "min": [
        -0.5113880038261414,
        -0.541487991809845,
        -0.9998900294303894
      ],
      "max": [
        0.5201889872550964,
        0.5313900113105774,
        0.9998409748077393
      ],
      "type": "VEC3",
      "bufferView": 0,
      "byteOffset": 63936
    },
    {
      "name": "_red_music_39:Mesh group3_1_texcoords",
      "componentType": 5126,
      "count": 5328,
      "min": [
        0.0001140000022132881,
        0.00010199999815085903
      ],
      "max": [
        0.9994199872016907,
        0.9999729990959167
      ],
      "type": "VEC2",
      "bufferView": 1,
      "byteOffset": 0
    },
    {
      "name": "_red_music_39:Mesh group3_1_0_indices",
      "componentType": 5123,
      "count": 5328,
      "min": [
        0
      ],
      "max": [
        5327
      ],
      "type": "SCALAR",
      "bufferView": 2,
      "byteOffset": 0
    }
  ],
  "asset": {
    "generator": "obj2gltf",
    "version": "2.0"
  },
  "buffers": [
    {
      "name": "04_red_music_39",
      "byteLength": 3056416,
      "uri": "data:application/octet-stream;base64,"
    }
  ],
  "bufferViews": [
    {
      "name": "bufferView_0",
      "buffer": 0,
      "byteLength": 127872,
      "byteOffset": 0,
      "byteStride": 12,
      "target": 34962
    },
    {
      "name": "bufferView_1",
      "buffer": 0,
      "byteLength": 42624,
      "byteOffset": 127872,
      "byteStride": 8,
      "target": 34962
    },
    {
      "name": "bufferView_2",
      "buffer": 0,
      "byteLength": 10656,
      "byteOffset": 170496,
      "target": 34963
    },
    {
      "buffer": 0,
      "byteOffset": 181152,
      "byteLength": 2875261
    }
  ],
  "images": [
    {
      "name": "04_red_music_39",
      "mimeType": "image/jpeg",
      "bufferView": 3
    }
  ],
  "materials": [
    {
      "name": "_red_music_39:_red_music_39",
      "pbrMetallicRoughness": {
        "baseColorTexture": {
          "index": 0
        },
        "baseColorFactor": [
          1,
          1,
          1,
          1
        ],
        "metallicFactor": 0,
        "roughnessFactor": 1
      },
      "emissiveFactor": [
        0,
        0,
        0
      ],
      "alphaMode": "OPAQUE",
      "doubleSided": false
    }
  ],
  "meshes": [
    {
      "name": "_red_music_39:Mesh group3_1",
      "primitives": [
        {
          "attributes": {
            "POSITION": 0,
            "NORMAL": 1,
            "TEXCOORD_0": 2
          },
          "indices": 3,
          "material": 0,
          "mode": 4
        }
      ]
    }
  ],
  "nodes": [
    {
      "name": "_red_music_39:Mesh group3",
      "mesh": 0
    }
  ],
  "samplers": [
    {
      "magFilter": 9729,
      "minFilter": 9986,
      "wrapS": 10497,
      "wrapT": 10497
    }
  ],
  "scene": 0,
  "scenes": [
    {
      "nodes": [
        0
      ]
    }
  ],
  "textures": [
    {
      "name": "04_red_music_39",
      "sampler": 0,
      "source": 0
    }
  ]
}
