{
  "accessors": [
    {
      "name": "_greenwoman_40:Mesh group10_1_positions",
      "componentType": 5126,
      "count": 5376,
      "min": [
        -1.7889889478683472,
        -1.85761296749115,
        -0.16298800706863403
      ],
      "max": [
        1.922516942024231,
        1.8619869947433472,
        0.5702030062675476
      ],
      "type": "VEC3",
      "bufferView": 0,
      "byteOffset": 0
    },
    {
      "name": "_greenwoman_40:Mesh group10_1_normals",
      "componentType": 5126,
      "count": 5376,
      "min": [
        -0.8031399846076965,
        -0.8672909736633301,
        -0.9997640252113342
      ],
      "max": [
        0.884486973285675,
        0.823477029800415,
        0.9997400045394897
      ],
      "type": "VEC3",
      "bufferView": 0,
      "byteOffset": 64512
    },
    {
      "name": "_greenwoman_40:Mesh group10_1_texcoords",
      "componentType": 5126,
      "count": 5376,
      "min": [
        0,
        0.4810410141944885
      ],
      "max": [
        0.4987809956073761,
        1
      ],
      "type": "VEC2",
      "bufferView": 1,
      "byteOffset": 0
    },
    {
      "name": "_greenwoman_40:Mesh group10_1_0_indices",
      "componentType": 5123,
      "count": 8064,
      "min": [
        0
      ],
      "max": [
        5375
      ],
      "type": "SCALAR",
      "bufferView": 2,
      "byteOffset": 0
    }
  ],
  "asset": {
    "generator": "obj2gltf",
    "version": "2.0"
  },
  "buffers": [
    {
      "name": "10_greenwoman_39",
      "byteLength": 1331544,
      "uri": "data:application/octet-stream;base64,"
    }
  ],
  "bufferViews": [
    {
      "name": "bufferView_0",
      "buffer": 0,
      "byteLength": 129024,
      "byteOffset": 0,
      "byteStride": 12,
      "target": 34962
    },
    {
      "name": "bufferView_1",
      "buffer": 0,
      "byteLength": 43008,
      "byteOffset": 129024,
      "byteStride": 8,
      "target": 34962
    },
    {
      "name": "bufferView_2",
      "buffer": 0,
      "byteLength": 16128,
      "byteOffset": 172032,
      "target": 34963
    },
    {
      "buffer": 0,
      "byteOffset": 188160,
      "byteLength": 1143381
    }
  ],
  "images": [
    {
      "name": "10_greenwoman_39",
      "mimeType": "image/jpeg",
      "bufferView": 3
    }
  ],
  "materials": [
    {
      "name": "_greenwoman_40:initialShadingGroup",
      "pbrMetallicRoughness": {
        "baseColorTexture": {
          "index": 0
        },
        "baseColorFactor": [
          1,
          1,
          1,
          1
        ],
        "metallicFactor": 0,
        "roughnessFactor": 1
      },
      "emissiveFactor": [
        0,
        0,
        0
      ],
      "alphaMode": "OPAQUE",
      "doubleSided": false
    }
  ],
  "meshes": [
    {
      "name": "_greenwoman_40:Mesh group10_1",
      "primitives": [
        {
          "attributes": {
            "POSITION": 0,
            "NORMAL": 1,
            "TEXCOORD_0": 2
          },
          "indices": 3,
          "material": 0,
          "mode": 4
        }
      ]
    }
  ],
  "nodes": [
    {
      "name": "_greenwoman_40:Mesh group10",
      "mesh": 0
    }
  ],
  "samplers": [
    {
      "magFilter": 9729,
      "minFilter": 9986,
      "wrapS": 10497,
      "wrapT": 10497
    }
  ],
  "scene": 0,
  "scenes": [
    {
      "nodes": [
        0
      ]
    }
  ],
  "textures": [
    {
      "name": "10_greenwoman_39",
      "sampler": 0,
      "source": 0
    }
  ]
}
