{
  "accessors": [
    {
      "name": "_greenwoman_39:Mesh group_1_positions",
      "componentType": 5126,
      "count": 4992,
      "min": [
        -1.8694490194320679,
        -1.9340070486068726,
        -0.4196479916572571
      ],
      "max": [
        1.9295530319213867,
        1.8637319803237915,
        0.01940000057220459
      ],
      "type": "VEC3",
      "bufferView": 0,
      "byteOffset": 0
    },
    {
      "name": "_greenwoman_39:Mesh group_1_normals",
      "componentType": 5126,
      "count": 4992,
      "min": [
        -0.9650149941444397,
        -0.9692879915237427,
        -0.9997339844703674
      ],
      "max": [
        0.968621015548706,
        0.9726390242576599,
        0.9996849894523621
      ],
      "type": "VEC3",
      "bufferView": 0,
      "byteOffset": 59904
    },
    {
      "name": "_greenwoman_39:Mesh group_1_texcoords",
      "componentType": 5126,
      "count": 4992,
      "min": [
        0,
        0.5669180154800415
      ],
      "max": [
        0.5353289842605591,
        1
      ],
      "type": "VEC2",
      "bufferView": 1,
      "byteOffset": 0
    },
    {
      "name": "_greenwoman_39:Mesh group_1_0_indices",
      "componentType": 5123,
      "count": 4992,
      "min": [
        0
      ],
      "max": [
        4991
      ],
      "type": "SCALAR",
      "bufferView": 2,
      "byteOffset": 0
    }
  ],
  "asset": {
    "generator": "obj2gltf",
    "version": "2.0"
  },
  "buffers": [
    {
      "name": "10_greenwoman_39",
      "byteLength": 1296428,
      "uri": "data:application/octet-stream;base64,"
    }
  ],
  "bufferViews": [
    {
      "name": "bufferView_0",
      "buffer": 0,
      "byteLength": 119808,
      "byteOffset": 0,
      "byteStride": 12,
      "target": 34962
    },
    {
      "name": "bufferView_1",
      "buffer": 0,
      "byteLength": 39936,
      "byteOffset": 119808,
      "byteStride": 8,
      "target": 34962
    },
    {
      "name": "bufferView_2",
      "buffer": 0,
      "byteLength": 9984,
      "byteOffset": 159744,
      "target": 34963
    },
    {
      "buffer": 0,
      "byteOffset": 169728,
      "byteLength": 1126700
    }
  ],
  "images": [
    {
      "name": "10_greenwoman_39",
      "mimeType": "image/jpeg",
      "bufferView": 3
    }
  ],
  "materials": [
    {
      "name": "_greenwoman_39:_greenwoman_39",
      "pbrMetallicRoughness": {
        "baseColorTexture": {
          "index": 0
        },
        "baseColorFactor": [
          1,
          1,
          1,
          1
        ],
        "metallicFactor": 0,
        "roughnessFactor": 0.982
      },
      "emissiveFactor": [
        0,
        0,
        0
      ],
      "alphaMode": "OPAQUE",
      "doubleSided": false
    }
  ],
  "meshes": [
    {
      "name": "_greenwoman_39:Mesh group_1",
      "primitives": [
        {
          "attributes": {
            "POSITION": 0,
            "NORMAL": 1,
            "TEXCOORD_0": 2
          },
          "indices": 3,
          "material": 0,
          "mode": 4
        }
      ]
    }
  ],
  "nodes": [
    {
      "name": "_greenwoman_39:Mesh group",
      "mesh": 0
    }
  ],
  "samplers": [
    {
      "magFilter": 9729,
      "minFilter": 9986,
      "wrapS": 10497,
      "wrapT": 10497
    }
  ],
  "scene": 0,
  "scenes": [
    {
      "nodes": [
        0
      ]
    }
  ],
  "textures": [
    {
      "name": "10_greenwoman_39",
      "sampler": 0,
      "source": 0
    }
  ]
}
