{
  "accessors": [
    {
      "name": "_bluewhitered39:_bluewhitered_39_remodel1 group11_1_positions",
      "componentType": 5126,
      "count": 5952,
      "min": [
        -1.9447540044784546,
        -1.8577760457992554,
        -0.3320780098438263
      ],
      "max": [
        1.9711320400238037,
        1.7813040018081665,
        0.18822599947452545
      ],
      "type": "VEC3",
      "bufferView": 0,
      "byteOffset": 0
    },
    {
      "name": "_bluewhitered39:_bluewhitered_39_remodel1 group11_1_normals",
      "componentType": 5126,
      "count": 5952,
      "min": [
        -0.998537003993988,
        -0.9973970055580139,
        -0.9999279975891113
      ],
      "max": [
        0.9961789846420288,
        0.9973970055580139,
        0.9999279975891113
      ],
      "type": "VEC3",
      "bufferView": 0,
      "byteOffset": 71424
    },
    {
      "name": "_bluewhitered39:_bluewhitered_39_remodel1 group11_1_texcoords",
      "componentType": 5126,
      "count": 5952,
      "min": [
        0.0009769999887794256,
        0.004157000221312046
      ],
      "max": [
        0.9990230202674866,
        0.9990230202674866
      ],
      "type": "VEC2",
      "bufferView": 1,
      "byteOffset": 0
    },
    {
      "name": "_bluewhitered39:_bluewhitered_39_remodel1 group11_1_0_indices",
      "componentType": 5123,
      "count": 8928,
      "min": [
        0
      ],
      "max": [
        5951
      ],
      "type": "SCALAR",
      "bufferView": 2,
      "byteOffset": 0
    }
  ],
  "asset": {
    "generator": "obj2gltf",
    "version": "2.0"
  },
  "buffers": [
    {
      "name": "11_bluewhitered39",
      "byteLength": 1820880,
      "uri": "data:application/octet-stream;base64,"
    }
  ],
  "bufferViews": [
    {
      "name": "bufferView_0",
      "buffer": 0,
      "byteLength": 142848,
      "byteOffset": 0,
      "byteStride": 12,
      "target": 34962
    },
    {
      "name": "bufferView_1",
      "buffer": 0,
      "byteLength": 47616,
      "byteOffset": 142848,
      "byteStride": 8,
      "target": 34962
    },
    {
      "name": "bufferView_2",
      "buffer": 0,
      "byteLength": 17856,
      "byteOffset": 190464,
      "target": 34963
    },
    {
      "buffer": 0,
      "byteOffset": 208320,
      "byteLength": 1612560
    }
  ],
  "images": [
    {
      "name": "bluewhiteredColor",
      "mimeType": "image/png",
      "bufferView": 3
    }
  ],
  "materials": [
    {
      "name": "_bluewhitered39:blinn1SG",
      "pbrMetallicRoughness": {
        "baseColorTexture": {
          "index": 0
        },
        "baseColorFactor": [
          1,
          1,
          1,
          1
        ],
        "metallicFactor": 0,
        "roughnessFactor": 0.99994
      },
      "emissiveFactor": [
        0,
        0,
        0
      ],
      "alphaMode": "OPAQUE",
      "doubleSided": false
    }
  ],
  "meshes": [
    {
      "name": "_bluewhitered39:_bluewhitered_39_remodel1 group11_1",
      "primitives": [
        {
          "attributes": {
            "POSITION": 0,
            "NORMAL": 1,
            "TEXCOORD_0": 2
          },
          "indices": 3,
          "material": 0,
          "mode": 4
        }
      ]
    }
  ],
  "nodes": [
    {
      "name": "_bluewhitered39:_bluewhitered_39_remodel1 group11",
      "mesh": 0
    }
  ],
  "samplers": [
    {
      "magFilter": 9729,
      "minFilter": 9986,
      "wrapS": 10497,
      "wrapT": 10497
    }
  ],
  "scene": 0,
  "scenes": [
    {
      "nodes": [
        0
      ]
    }
  ],
  "textures": [
    {
      "name": "bluewhiteredColor",
      "sampler": 0,
      "source": 0
    }
  ]
}
