{
  "accessors": [
    {
      "name": "_WF_bowl_64:ZBrush_defualt_group _WF_bowl_64:group4 _WF_bowl_64:polySurface2 _WF_bowl_64:polySurface1 group13_1_positions",
      "componentType": 5126,
      "count": 6400,
      "min": [
        -1.7971030473709106,
        -1.773447036743164,
        -0.2408449947834015
      ],
      "max": [
        1.7619349956512451,
        1.786175012588501,
        0.36353299021720886
      ],
      "type": "VEC3",
      "bufferView": 0,
      "byteOffset": 0
    },
    {
      "name": "_WF_bowl_64:ZBrush_defualt_group _WF_bowl_64:group4 _WF_bowl_64:polySurface2 _WF_bowl_64:polySurface1 group13_1_normals",
      "componentType": 5126,
      "count": 6400,
      "min": [
        -0.6136810183525085,
        -0.6059600114822388,
        -0.9997469782829285
      ],
      "max": [
        0.6131470203399658,
        0.6054220199584961,
        0.999705970287323
      ],
      "type": "VEC3",
      "bufferView": 0,
      "byteOffset": 76800
    },
    {
      "name": "_WF_bowl_64:ZBrush_defualt_group _WF_bowl_64:group4 _WF_bowl_64:polySurface2 _WF_bowl_64:polySurface1 group13_1_texcoords",
      "componentType": 5126,
      "count": 6400,
      "min": [
        0,
        0.000009999999747378752
      ],
      "max": [
        0.4924499988555908,
        0.4364500045776367
      ],
      "type": "VEC2",
      "bufferView": 1,
      "byteOffset": 0
    },
    {
      "name": "_WF_bowl_64:ZBrush_defualt_group _WF_bowl_64:group4 _WF_bowl_64:polySurface2 _WF_bowl_64:polySurface1 group13_1_0_indices",
      "componentType": 5123,
      "count": 9600,
      "min": [
        0
      ],
      "max": [
        6399
      ],
      "type": "SCALAR",
      "bufferView": 2,
      "byteOffset": 0
    }
  ],
  "asset": {
    "generator": "obj2gltf",
    "version": "2.0"
  },
  "buffers": [
    {
      "name": "13_WF_bowl_64",
      "byteLength": 2147840,
      "uri": "data:application/octet-stream;base64,"
    }
  ],
  "bufferViews": [
    {
      "name": "bufferView_0",
      "buffer": 0,
      "byteLength": 153600,
      "byteOffset": 0,
      "byteStride": 12,
      "target": 34962
    },
    {
      "name": "bufferView_1",
      "buffer": 0,
      "byteLength": 51200,
      "byteOffset": 153600,
      "byteStride": 8,
      "target": 34962
    },
    {
      "name": "bufferView_2",
      "buffer": 0,
      "byteLength": 19200,
      "byteOffset": 204800,
      "target": 34963
    },
    {
      "buffer": 0,
      "byteOffset": 224000,
      "byteLength": 1923837
    }
  ],
  "images": [
    {
      "name": "13_WF_bowl_64",
      "mimeType": "image/jpeg",
      "bufferView": 3
    }
  ],
  "materials": [
    {
      "name": "_WF_bowl_64:initialShadingGroup",
      "pbrMetallicRoughness": {
        "baseColorTexture": {
          "index": 0
        },
        "baseColorFactor": [
          1,
          1,
          1,
          1
        ],
        "metallicFactor": 0,
        "roughnessFactor": 1
      },
      "emissiveFactor": [
        0,
        0,
        0
      ],
      "alphaMode": "OPAQUE",
      "doubleSided": false
    }
  ],
  "meshes": [
    {
      "name": "_WF_bowl_64:ZBrush_defualt_group _WF_bowl_64:group4 _WF_bowl_64:polySurface2 _WF_bowl_64:polySurface1 group13_1",
      "primitives": [
        {
          "attributes": {
            "POSITION": 0,
            "NORMAL": 1,
            "TEXCOORD_0": 2
          },
          "indices": 3,
          "material": 0,
          "mode": 4
        }
      ]
    }
  ],
  "nodes": [
    {
      "name": "_WF_bowl_64:ZBrush_defualt_group _WF_bowl_64:group4 _WF_bowl_64:polySurface2 _WF_bowl_64:polySurface1 group13",
      "mesh": 0
    }
  ],
  "samplers": [
    {
      "magFilter": 9729,
      "minFilter": 9986,
      "wrapS": 10497,
      "wrapT": 10497
    }
  ],
  "scene": 0,
  "scenes": [
    {
      "nodes": [
        0
      ]
    }
  ],
  "textures": [
    {
      "name": "13_WF_bowl_64",
      "sampler": 0,
      "source": 0
    }
  ]
}
