{
  "accessors": [
    {
      "name": "twsited64:_twisted_64_remodel1 group20_1_positions",
      "componentType": 5126,
      "count": 6144,
      "min": [
        -1.4424539804458618,
        -1.436040997505188,
        -0.03039499931037426
      ],
      "max": [
        1.4283020496368408,
        1.436040997505188,
        0.5266150236129761
      ],
      "type": "VEC3",
      "bufferView": 0,
      "byteOffset": 0
    },
    {
      "name": "twsited64:_twisted_64_remodel1 group20_1_normals",
      "componentType": 5126,
      "count": 6144,
      "min": [
        -0.997310996055603,
        -0.9946209788322449,
        -0.9999949932098389
      ],
      "max": [
        0.9910119771957397,
        0.9946209788322449,
        0.9999930262565613
      ],
      "type": "VEC3",
      "bufferView": 0,
      "byteOffset": 73728
    },
    {
      "name": "twsited64:_twisted_64_remodel1 group20_1_texcoords",
      "componentType": 5126,
      "count": 6144,
      "min": [
        0.012432999908924103,
        0.031158000230789185
      ],
      "max": [
        0.969514012336731,
        0.9853829741477966
      ],
      "type": "VEC2",
      "bufferView": 1,
      "byteOffset": 0
    },
    {
      "name": "twsited64:_twisted_64_remodel1 group20_1_0_indices",
      "componentType": 5123,
      "count": 9216,
      "min": [
        0
      ],
      "max": [
        6143
      ],
      "type": "SCALAR",
      "bufferView": 2,
      "byteOffset": 0
    }
  ],
  "asset": {
    "generator": "obj2gltf",
    "version": "2.0"
  },
  "buffers": [
    {
      "name": "twsited64",
      "byteLength": 2184652,
      "uri": "data:application/octet-stream;base64,"
    }
  ],
  "bufferViews": [
    {
      "name": "bufferView_0",
      "buffer": 0,
      "byteLength": 147456,
      "byteOffset": 0,
      "byteStride": 12,
      "target": 34962
    },
    {
      "name": "bufferView_1",
      "buffer": 0,
      "byteLength": 49152,
      "byteOffset": 147456,
      "byteStride": 8,
      "target": 34962
    },
    {
      "name": "bufferView_2",
      "buffer": 0,
      "byteLength": 18432,
      "byteOffset": 196608,
      "target": 34963
    },
    {
      "buffer": 0,
      "byteOffset": 215040,
      "byteLength": 1969612
    }
  ],
  "images": [
    {
      "name": "twsitedColor",
      "mimeType": "image/png",
      "bufferView": 3
    }
  ],
  "materials": [
    {
      "name": "twsited64:blinn3SG",
      "pbrMetallicRoughness": {
        "baseColorTexture": {
          "index": 0
        },
        "baseColorFactor": [
          1,
          1,
          1,
          1
        ],
        "metallicFactor": 0,
        "roughnessFactor": 0.99994
      },
      "emissiveFactor": [
        0,
        0,
        0
      ],
      "alphaMode": "OPAQUE",
      "doubleSided": false
    }
  ],
  "meshes": [
    {
      "name": "twsited64:_twisted_64_remodel1 group20_1",
      "primitives": [
        {
          "attributes": {
            "POSITION": 0,
            "NORMAL": 1,
            "TEXCOORD_0": 2
          },
          "indices": 3,
          "material": 0,
          "mode": 4
        }
      ]
    }
  ],
  "nodes": [
    {
      "name": "twsited64:_twisted_64_remodel1 group20",
      "mesh": 0
    }
  ],
  "samplers": [
    {
      "magFilter": 9729,
      "minFilter": 9986,
      "wrapS": 10497,
      "wrapT": 10497
    }
  ],
  "scene": 0,
  "scenes": [
    {
      "nodes": [
        0
      ]
    }
  ],
  "textures": [
    {
      "name": "twsitedColor",
      "sampler": 0,
      "source": 0
    }
  ]
}
