{
  "accessors": [
    {
      "name": "_spiked_64_weirdProjection:Mesh _spiked_64_weirdProjection:group5 _spiked_64_weirdProjection:polySurface2 _spiked_64_weirdProjection:polySurface1 group21_1_positions",
      "componentType": 5126,
      "count": 11648,
      "min": [
        -1.4478800296783447,
        -1.4351569414138794,
        -0.13981400430202484
      ],
      "max": [
        1.4062880277633667,
        1.4137589931488037,
        0.2566640079021454
      ],
      "type": "VEC3",
      "bufferView": 0,
      "byteOffset": 0
    },
    {
      "name": "_spiked_64_weirdProjection:Mesh _spiked_64_weirdProjection:group5 _spiked_64_weirdProjection:polySurface2 _spiked_64_weirdProjection:polySurface1 group21_1_normals",
      "componentType": 5126,
      "count": 11648,
      "min": [
        -0.9467880129814148,
        -0.9227420091629028,
        -0.9999650120735168
      ],
      "max": [
        0.947767972946167,
        0.962706983089447,
        0.9999579787254333
      ],
      "type": "VEC3",
      "bufferView": 0,
      "byteOffset": 139776
    },
    {
      "name": "_spiked_64_weirdProjection:Mesh _spiked_64_weirdProjection:group5 _spiked_64_weirdProjection:polySurface2 _spiked_64_weirdProjection:polySurface1 group21_1_texcoords",
      "componentType": 5126,
      "count": 11648,
      "min": [
        0,
        0.4870609939098358
      ],
      "max": [
        0.5563610196113586,
        1
      ],
      "type": "VEC2",
      "bufferView": 1,
      "byteOffset": 0
    },
    {
      "name": "_spiked_64_weirdProjection:Mesh _spiked_64_weirdProjection:group5 _spiked_64_weirdProjection:polySurface2 _spiked_64_weirdProjection:polySurface1 group21_1_0_indices",
      "componentType": 5123,
      "count": 17472,
      "min": [
        0
      ],
      "max": [
        11647
      ],
      "type": "SCALAR",
      "bufferView": 2,
      "byteOffset": 0
    }
  ],
  "asset": {
    "generator": "obj2gltf",
    "version": "2.0"
  },
  "buffers": [
    {
      "name": "20_spiked_64_weirdProjection",
      "byteLength": 1618968,
      "uri": "data:application/octet-stream;base64,"
    }
  ],
  "bufferViews": [
    {
      "name": "bufferView_0",
      "buffer": 0,
      "byteLength": 279552,
      "byteOffset": 0,
      "byteStride": 12,
      "target": 34962
    },
    {
      "name": "bufferView_1",
      "buffer": 0,
      "byteLength": 93184,
      "byteOffset": 279552,
      "byteStride": 8,
      "target": 34962
    },
    {
      "name": "bufferView_2",
      "buffer": 0,
      "byteLength": 34944,
      "byteOffset": 372736,
      "target": 34963
    },
    {
      "buffer": 0,
      "byteOffset": 407680,
      "byteLength": 1211286
    }
  ],
  "images": [
    {
      "name": "20_spiked_64_weirdProjection",
      "mimeType": "image/jpeg",
      "bufferView": 3
    }
  ],
  "materials": [
    {
      "name": "_spiked_64_weirdProjection:initialShadingGroup",
      "pbrMetallicRoughness": {
        "baseColorTexture": {
          "index": 0
        },
        "baseColorFactor": [
          1,
          1,
          1,
          1
        ],
        "metallicFactor": 0,
        "roughnessFactor": 1
      },
      "emissiveFactor": [
        0,
        0,
        0
      ],
      "alphaMode": "OPAQUE",
      "doubleSided": false
    }
  ],
  "meshes": [
    {
      "name": "_spiked_64_weirdProjection:Mesh _spiked_64_weirdProjection:group5 _spiked_64_weirdProjection:polySurface2 _spiked_64_weirdProjection:polySurface1 group21_1",
      "primitives": [
        {
          "attributes": {
            "POSITION": 0,
            "NORMAL": 1,
            "TEXCOORD_0": 2
          },
          "indices": 3,
          "material": 0,
          "mode": 4
        }
      ]
    }
  ],
  "nodes": [
    {
      "name": "_spiked_64_weirdProjection:Mesh _spiked_64_weirdProjection:group5 _spiked_64_weirdProjection:polySurface2 _spiked_64_weirdProjection:polySurface1 group21",
      "mesh": 0
    }
  ],
  "samplers": [
    {
      "magFilter": 9729,
      "minFilter": 9986,
      "wrapS": 10497,
      "wrapT": 10497
    }
  ],
  "scene": 0,
  "scenes": [
    {
      "nodes": [
        0
      ]
    }
  ],
  "textures": [
    {
      "name": "20_spiked_64_weirdProjection",
      "sampler": 0,
      "source": 0
    }
  ]
}
