{
  "accessors": [
    {
      "name": "_black_metal_unisphere:ZBrush_defualt_group group25_1_positions",
      "componentType": 5126,
      "count": 4352,
      "min": [
        -2.5081050395965576,
        -2.408752918243408,
        -0.010487999767065048
      ],
      "max": [
        2.4838240146636963,
        2.5831899642944336,
        0.41311800479888916
      ],
      "type": "VEC3",
      "bufferView": 0,
      "byteOffset": 0
    },
    {
      "name": "_black_metal_unisphere:ZBrush_defualt_group group25_1_normals",
      "componentType": 5126,
      "count": 4352,
      "min": [
        -0.7864059805870056,
        -0.7841029763221741,
        -0.9999960064888
      ],
      "max": [
        0.7832199931144714,
        0.7854580283164978,
        1
      ],
      "type": "VEC3",
      "bufferView": 0,
      "byteOffset": 52224
    },
    {
      "name": "_black_metal_unisphere:ZBrush_defualt_group group25_1_texcoords",
      "componentType": 5126,
      "count": 4352,
      "min": [
        0,
        0.000009999999747378752
      ],
      "max": [
        0.6098300218582153,
        0.650879979133606
      ],
      "type": "VEC2",
      "bufferView": 1,
      "byteOffset": 0
    },
    {
      "name": "_black_metal_unisphere:ZBrush_defualt_group group25_1_0_indices",
      "componentType": 5123,
      "count": 6528,
      "min": [
        0
      ],
      "max": [
        4351
      ],
      "type": "SCALAR",
      "bufferView": 2,
      "byteOffset": 0
    }
  ],
  "asset": {
    "generator": "obj2gltf",
    "version": "2.0"
  },
  "buffers": [
    {
      "name": "23_black_metal_unisphere",
      "byteLength": 2867968,
      "uri": "data:application/octet-stream;base64,"
    }
  ],
  "bufferViews": [
    {
      "name": "bufferView_0",
      "buffer": 0,
      "byteLength": 104448,
      "byteOffset": 0,
      "byteStride": 12,
      "target": 34962
    },
    {
      "name": "bufferView_1",
      "buffer": 0,
      "byteLength": 34816,
      "byteOffset": 104448,
      "byteStride": 8,
      "target": 34962
    },
    {
      "name": "bufferView_2",
      "buffer": 0,
      "byteLength": 13056,
      "byteOffset": 139264,
      "target": 34963
    },
    {
      "buffer": 0,
      "byteOffset": 152320,
      "byteLength": 2715646
    }
  ],
  "images": [
    {
      "name": "23_black_metal_unisphere",
      "mimeType": "image/jpeg",
      "bufferView": 3
    }
  ],
  "materials": [
    {
      "name": "initialShadingGroup",
      "pbrMetallicRoughness": {
        "baseColorTexture": {
          "index": 0
        },
        "baseColorFactor": [
          1,
          1,
          1,
          1
        ],
        "metallicFactor": 0,
        "roughnessFactor": 1
      },
      "emissiveFactor": [
        0,
        0,
        0
      ],
      "alphaMode": "OPAQUE",
      "doubleSided": false
    }
  ],
  "meshes": [
    {
      "name": "_black_metal_unisphere:ZBrush_defualt_group group25_1",
      "primitives": [
        {
          "attributes": {
            "POSITION": 0,
            "NORMAL": 1,
            "TEXCOORD_0": 2
          },
          "indices": 3,
          "material": 0,
          "mode": 4
        }
      ]
    }
  ],
  "nodes": [
    {
      "name": "_black_metal_unisphere:ZBrush_defualt_group group25",
      "mesh": 0
    }
  ],
  "samplers": [
    {
      "magFilter": 9729,
      "minFilter": 9986,
      "wrapS": 10497,
      "wrapT": 10497
    }
  ],
  "scene": 0,
  "scenes": [
    {
      "nodes": [
        0
      ]
    }
  ],
  "textures": [
    {
      "name": "23_black_metal_unisphere",
      "sampler": 0,
      "source": 0
    }
  ]
}
