{
  "accessors": [
    {
      "name": "_dark_bowl_64_FIXED:Mesh group29_1_positions",
      "componentType": 5126,
      "count": 864,
      "min": [
        -1.410994052886963,
        -1.3776869773864746,
        -0.3118079900741577
      ],
      "max": [
        1.4671250581741333,
        1.496332049369812,
        0.35997000336647034
      ],
      "type": "VEC3",
      "bufferView": 0,
      "byteOffset": 0
    },
    {
      "name": "_dark_bowl_64_FIXED:Mesh group29_1_normals",
      "componentType": 5126,
      "count": 864,
      "min": [
        -0.660181999206543,
        -0.6315649747848511,
        -0.9983220100402832
      ],
      "max": [
        0.6863240003585815,
        0.7130709886550903,
        0.9983220100402832
      ],
      "type": "VEC3",
      "bufferView": 0,
      "byteOffset": 10368
    },
    {
      "name": "_dark_bowl_64_FIXED:Mesh group29_1_texcoords",
      "componentType": 5126,
      "count": 864,
      "min": [
        0.000018000000636675395,
        0.007915000431239605
      ],
      "max": [
        0.9999060034751892,
        0.9999489784240723
      ],
      "type": "VEC2",
      "bufferView": 1,
      "byteOffset": 0
    },
    {
      "name": "_dark_bowl_64_FIXED:Mesh group29_1_0_indices",
      "componentType": 5123,
      "count": 864,
      "min": [
        0
      ],
      "max": [
        863
      ],
      "type": "SCALAR",
      "bufferView": 2,
      "byteOffset": 0
    }
  ],
  "asset": {
    "generator": "obj2gltf",
    "version": "2.0"
  },
  "buffers": [
    {
      "name": "26_dark_bowl_64 FIXED",
      "byteLength": 3105380,
      "uri": "data:application/octet-stream;base64,"
    }
  ],
  "bufferViews": [
    {
      "name": "bufferView_0",
      "buffer": 0,
      "byteLength": 20736,
      "byteOffset": 0,
      "byteStride": 12,
      "target": 34962
    },
    {
      "name": "bufferView_1",
      "buffer": 0,
      "byteLength": 6912,
      "byteOffset": 20736,
      "byteStride": 8,
      "target": 34962
    },
    {
      "name": "bufferView_2",
      "buffer": 0,
      "byteLength": 1728,
      "byteOffset": 27648,
      "target": 34963
    },
    {
      "buffer": 0,
      "byteOffset": 29376,
      "byteLength": 3076004
    }
  ],
  "images": [
    {
      "name": "26_dark_bowl_64 FIXED",
      "mimeType": "image/jpeg",
      "bufferView": 3
    }
  ],
  "materials": [
    {
      "name": "initialShadingGroup",
      "pbrMetallicRoughness": {
        "baseColorTexture": {
          "index": 0
        },
        "baseColorFactor": [
          1,
          1,
          1,
          1
        ],
        "metallicFactor": 0,
        "roughnessFactor": 1
      },
      "emissiveFactor": [
        0,
        0,
        0
      ],
      "alphaMode": "OPAQUE",
      "doubleSided": false
    }
  ],
  "meshes": [
    {
      "name": "_dark_bowl_64_FIXED:Mesh group29_1",
      "primitives": [
        {
          "attributes": {
            "POSITION": 0,
            "NORMAL": 1,
            "TEXCOORD_0": 2
          },
          "indices": 3,
          "material": 0,
          "mode": 4
        }
      ]
    }
  ],
  "nodes": [
    {
      "name": "_dark_bowl_64_FIXED:Mesh group29",
      "mesh": 0
    }
  ],
  "samplers": [
    {
      "magFilter": 9729,
      "minFilter": 9986,
      "wrapS": 10497,
      "wrapT": 10497
    }
  ],
  "scene": 0,
  "scenes": [
    {
      "nodes": [
        0
      ]
    }
  ],
  "textures": [
    {
      "name": "26_dark_bowl_64 FIXED",
      "sampler": 0,
      "source": 0
    }
  ]
}
