{
  "accessors": [
    {
      "name": "bluewhitered39:_bluewhitered_39_remodel1 group_1_positions",
      "componentType": 5126,
      "count": 5952,
      "min": [
        -4.395401954650879,
        -4.179999828338623,
        -0.9010649919509888
      ],
      "max": [
        4.4019551277160645,
        4.187127113342285,
        0.45588499307632446
      ],
      "type": "VEC3",
      "bufferView": 0,
      "byteOffset": 0
    },
    {
      "name": "bluewhitered39:_bluewhitered_39_remodel1 group_1_normals",
      "componentType": 5126,
      "count": 5952,
      "min": [
        -0.9980739951133728,
        -0.9990620017051697,
        -0.9999070167541504
      ],
      "max": [
        0.9966840147972107,
        0.9990620017051697,
        0.9998859763145447
      ],
      "type": "VEC3",
      "bufferView": 0,
      "byteOffset": 71424
    },
    {
      "name": "bluewhitered39:_bluewhitered_39_remodel1 group_1_texcoords",
      "componentType": 5126,
      "count": 5952,
      "min": [
        0.0009769999887794256,
        0.004157000221312046
      ],
      "max": [
        0.9990230202674866,
        0.9990230202674866
      ],
      "type": "VEC2",
      "bufferView": 1,
      "byteOffset": 0
    },
    {
      "name": "bluewhitered39:_bluewhitered_39_remodel1 group_1_0_indices",
      "componentType": 5123,
      "count": 8928,
      "min": [
        0
      ],
      "max": [
        5951
      ],
      "type": "SCALAR",
      "bufferView": 2,
      "byteOffset": 0
    }
  ],
  "asset": {
    "generator": "obj2gltf",
    "version": "2.0"
  },
  "buffers": [
    {
      "name": "bluewhitered39",
      "byteLength": 622388,
      "uri": "data:application/octet-stream;base64,"
    }
  ],
  "bufferViews": [
    {
      "name": "bufferView_0",
      "buffer": 0,
      "byteLength": 142848,
      "byteOffset": 0,
      "byteStride": 12,
      "target": 34962
    },
    {
      "name": "bufferView_1",
      "buffer": 0,
      "byteLength": 47616,
      "byteOffset": 142848,
      "byteStride": 8,
      "target": 34962
    },
    {
      "name": "bufferView_2",
      "buffer": 0,
      "byteLength": 17856,
      "byteOffset": 190464,
      "target": 34963
    },
    {
      "buffer": 0,
      "byteOffset": 208320,
      "byteLength": 414068
    }
  ],
  "images": [
    {
      "name": "G24_P260",
      "mimeType": "image/jpeg",
      "bufferView": 3
    }
  ],
  "materials": [
    {
      "name": "bluewhitered39:blinn1SG",
      "pbrMetallicRoughness": {
        "baseColorTexture": {
          "index": 0
        },
        "baseColorFactor": [
          1,
          1,
          1,
          1
        ],
        "metallicFactor": 0,
        "roughnessFactor": 0.99994
      },
      "emissiveFactor": [
        0,
        0,
        0
      ],
      "alphaMode": "OPAQUE",
      "doubleSided": false
    }
  ],
  "meshes": [
    {
      "name": "bluewhitered39:_bluewhitered_39_remodel1 group_1",
      "primitives": [
        {
          "attributes": {
            "POSITION": 0,
            "NORMAL": 1,
            "TEXCOORD_0": 2
          },
          "indices": 3,
          "material": 0,
          "mode": 4
        }
      ]
    }
  ],
  "nodes": [
    {
      "name": "bluewhitered39:_bluewhitered_39_remodel1 group",
      "mesh": 0
    }
  ],
  "samplers": [
    {
      "magFilter": 9729,
      "minFilter": 9986,
      "wrapS": 10497,
      "wrapT": 10497
    }
  ],
  "scene": 0,
  "scenes": [
    {
      "nodes": [
        0
      ]
    }
  ],
  "textures": [
    {
      "name": "G24_P260",
      "sampler": 0,
      "source": 0
    }
  ]
}
